<svg xmlns="http://www.w3.org/2000/svg" viewBox="0 0 1080 830" font-family="Helvetica, Arial, sans-serif">
<rect x="0" y="0" width="1080" height="830" fill="#ffffff"/>
<polyline points="260,112.0 345.0,112.0 345.0,136.0 430,136.0" fill="none" stroke="#6b7b91" stroke-width="1.6"/>
<circle cx="430" cy="136.0" r="3.4" fill="#3d5a80"/>
<polyline points="680,112.0 745.0,112.0 745.0,136.0 810,136.0" fill="none" stroke="#6b7b91" stroke-width="1.6"/>
<circle cx="810" cy="136.0" r="3.4" fill="#3d5a80"/>
<polyline points="430,112.0 395,112.0 395,396.0 430,396.0" fill="none" stroke="#6b7b91" stroke-width="1.6"/>
<circle cx="430" cy="396.0" r="3.4" fill="#3d5a80"/>
<rect x="62" y="73" width="200" height="102" rx="7" fill="#000" opacity="0.06"/>
<rect x="60" y="70" width="200" height="102" rx="7" fill="#ffffff" stroke="#b9c6db" stroke-width="1.2"/>
<path d="M60,77 a7,7 0 0 1 7,-7 h186 a7,7 0 0 1 7,7 v23 h-200 z" fill="#3d5a80"/>
<text x="72" y="85.0" dy="0.35em" fill="#ffffff" font-size="13.5" font-weight="700">users</text>
<text x="72" y="112.0" dy="0.35em" fill="#1f2d3d" font-size="12.5" font-weight="700">id</text>
<text x="248" y="112.0" dy="0.35em" fill="#b8860b" font-size="11" text-anchor="end">UUID · PK</text>
<line x1="60" y1="124" x2="260" y2="124" stroke="#e6ecf4" stroke-width="1"/>
<text x="72" y="136.0" dy="0.35em" fill="#1f2d3d" font-size="12.5" font-weight="400">email</text>
<text x="248" y="136.0" dy="0.35em" fill="#8a97a8" font-size="11" text-anchor="end">TEXT</text>
<line x1="60" y1="148" x2="260" y2="148" stroke="#e6ecf4" stroke-width="1"/>
<text x="72" y="160.0" dy="0.35em" fill="#1f2d3d" font-size="12.5" font-weight="400">password_hash</text>
<text x="248" y="160.0" dy="0.35em" fill="#8a97a8" font-size="11" text-anchor="end">TEXT</text>
<rect x="432" y="73" width="250" height="150" rx="7" fill="#000" opacity="0.06"/>
<rect x="430" y="70" width="250" height="150" rx="7" fill="#ffffff" stroke="#b9c6db" stroke-width="1.2"/>
<path d="M430,77 a7,7 0 0 1 7,-7 h236 a7,7 0 0 1 7,7 v23 h-250 z" fill="#3d5a80"/>
<text x="442" y="85.0" dy="0.35em" fill="#ffffff" font-size="13.5" font-weight="700">projects</text>
<text x="442" y="112.0" dy="0.35em" fill="#1f2d3d" font-size="12.5" font-weight="700">id</text>
<text x="668" y="112.0" dy="0.35em" fill="#b8860b" font-size="11" text-anchor="end">UUID · PK</text>
<line x1="430" y1="124" x2="680" y2="124" stroke="#e6ecf4" stroke-width="1"/>
<text x="442" y="136.0" dy="0.35em" fill="#1f2d3d" font-size="12.5" font-weight="400">user_id</text>
<text x="668" y="136.0" dy="0.35em" fill="#8a97a8" font-size="11" text-anchor="end">UUID · FK</text>
<line x1="430" y1="148" x2="680" y2="148" stroke="#e6ecf4" stroke-width="1"/>
<text x="442" y="160.0" dy="0.35em" fill="#1f2d3d" font-size="12.5" font-weight="400">name</text>
<text x="668" y="160.0" dy="0.35em" fill="#8a97a8" font-size="11" text-anchor="end">TEXT</text>
<line x1="430" y1="172" x2="680" y2="172" stroke="#e6ecf4" stroke-width="1"/>
<text x="442" y="184.0" dy="0.35em" fill="#1f2d3d" font-size="12.5" font-weight="400">package_name</text>
<text x="668" y="184.0" dy="0.35em" fill="#8a97a8" font-size="11" text-anchor="end">TEXT</text>
<line x1="430" y1="196" x2="680" y2="196" stroke="#e6ecf4" stroke-width="1"/>
<text x="442" y="208.0" dy="0.35em" fill="#1f2d3d" font-size="12.5" font-weight="400">telegram_chat_id</text>
<text x="668" y="208.0" dy="0.35em" fill="#8a97a8" font-size="11" text-anchor="end">BIGINT</text>
<rect x="812" y="73" width="230" height="174" rx="7" fill="#000" opacity="0.06"/>
<rect x="810" y="70" width="230" height="174" rx="7" fill="#ffffff" stroke="#b9c6db" stroke-width="1.2"/>
<path d="M810,77 a7,7 0 0 1 7,-7 h216 a7,7 0 0 1 7,7 v23 h-230 z" fill="#3d5a80"/>
<text x="822" y="85.0" dy="0.35em" fill="#ffffff" font-size="13.5" font-weight="700">version_releases</text>
<text x="822" y="112.0" dy="0.35em" fill="#1f2d3d" font-size="12.5" font-weight="700">id</text>
<text x="1028" y="112.0" dy="0.35em" fill="#b8860b" font-size="11" text-anchor="end">UUID · PK</text>
<line x1="810" y1="124" x2="1040" y2="124" stroke="#e6ecf4" stroke-width="1"/>
<text x="822" y="136.0" dy="0.35em" fill="#1f2d3d" font-size="12.5" font-weight="400">project_id</text>
<text x="1028" y="136.0" dy="0.35em" fill="#8a97a8" font-size="11" text-anchor="end">UUID · FK</text>
<line x1="810" y1="148" x2="1040" y2="148" stroke="#e6ecf4" stroke-width="1"/>
<text x="822" y="160.0" dy="0.35em" fill="#1f2d3d" font-size="12.5" font-weight="400">version_code</text>
<text x="1028" y="160.0" dy="0.35em" fill="#8a97a8" font-size="11" text-anchor="end">INT</text>
<line x1="810" y1="172" x2="1040" y2="172" stroke="#e6ecf4" stroke-width="1"/>
<text x="822" y="184.0" dy="0.35em" fill="#1f2d3d" font-size="12.5" font-weight="400">version_name</text>
<text x="1028" y="184.0" dy="0.35em" fill="#8a97a8" font-size="11" text-anchor="end">TEXT</text>
<line x1="810" y1="196" x2="1040" y2="196" stroke="#e6ecf4" stroke-width="1"/>
<text x="822" y="208.0" dy="0.35em" fill="#1f2d3d" font-size="12.5" font-weight="400">first_seen_at</text>
<text x="1028" y="208.0" dy="0.35em" fill="#8a97a8" font-size="11" text-anchor="end">TIMESTAMPTZ</text>
<line x1="810" y1="220" x2="1040" y2="220" stroke="#e6ecf4" stroke-width="1"/>
<text x="822" y="232.0" dy="0.35em" fill="#1f2d3d" font-size="12.5" font-weight="400">sample_count</text>
<text x="1028" y="232.0" dy="0.35em" fill="#8a97a8" font-size="11" text-anchor="end">BIGINT</text>
<rect x="432" y="333" width="270" height="438" rx="7" fill="#000" opacity="0.06"/>
<rect x="430" y="330" width="270" height="438" rx="7" fill="#ffffff" stroke="#b9c6db" stroke-width="1.2"/>
<path d="M430,337 a7,7 0 0 1 7,-7 h256 a7,7 0 0 1 7,7 v23 h-270 z" fill="#3d5a80"/>
<text x="442" y="345.0" dy="0.35em" fill="#ffffff" font-size="13.5" font-weight="700">regressions</text>
<text x="442" y="372.0" dy="0.35em" fill="#1f2d3d" font-size="12.5" font-weight="700">id</text>
<text x="688" y="372.0" dy="0.35em" fill="#b8860b" font-size="11" text-anchor="end">UUID · PK</text>
<line x1="430" y1="384" x2="700" y2="384" stroke="#e6ecf4" stroke-width="1"/>
<text x="442" y="396.0" dy="0.35em" fill="#1f2d3d" font-size="12.5" font-weight="400">project_id</text>
<text x="688" y="396.0" dy="0.35em" fill="#8a97a8" font-size="11" text-anchor="end">UUID · FK</text>
<line x1="430" y1="408" x2="700" y2="408" stroke="#e6ecf4" stroke-width="1"/>
<text x="442" y="420.0" dy="0.35em" fill="#1f2d3d" font-size="12.5" font-weight="400">metric_id</text>
<text x="688" y="420.0" dy="0.35em" fill="#8a97a8" font-size="11" text-anchor="end">TEXT</text>
<line x1="430" y1="432" x2="700" y2="432" stroke="#e6ecf4" stroke-width="1"/>
<text x="442" y="444.0" dy="0.35em" fill="#1f2d3d" font-size="12.5" font-weight="400">screen_name</text>
<text x="688" y="444.0" dy="0.35em" fill="#8a97a8" font-size="11" text-anchor="end">TEXT</text>
<line x1="430" y1="456" x2="700" y2="456" stroke="#e6ecf4" stroke-width="1"/>
<text x="442" y="468.0" dy="0.35em" fill="#1f2d3d" font-size="12.5" font-weight="400">device_cohort</text>
<text x="688" y="468.0" dy="0.35em" fill="#8a97a8" font-size="11" text-anchor="end">TEXT</text>
<line x1="430" y1="480" x2="700" y2="480" stroke="#e6ecf4" stroke-width="1"/>
<text x="442" y="492.0" dy="0.35em" fill="#1f2d3d" font-size="12.5" font-weight="400">baseline_version_code</text>
<text x="688" y="492.0" dy="0.35em" fill="#8a97a8" font-size="11" text-anchor="end">INT</text>
<line x1="430" y1="504" x2="700" y2="504" stroke="#e6ecf4" stroke-width="1"/>
<text x="442" y="516.0" dy="0.35em" fill="#1f2d3d" font-size="12.5" font-weight="400">baseline_version_name</text>
<text x="688" y="516.0" dy="0.35em" fill="#8a97a8" font-size="11" text-anchor="end">TEXT</text>
<line x1="430" y1="528" x2="700" y2="528" stroke="#e6ecf4" stroke-width="1"/>
<text x="442" y="540.0" dy="0.35em" fill="#1f2d3d" font-size="12.5" font-weight="400">current_version_code</text>
<text x="688" y="540.0" dy="0.35em" fill="#8a97a8" font-size="11" text-anchor="end">INT</text>
<line x1="430" y1="552" x2="700" y2="552" stroke="#e6ecf4" stroke-width="1"/>
<text x="442" y="564.0" dy="0.35em" fill="#1f2d3d" font-size="12.5" font-weight="400">current_version_name</text>
<text x="688" y="564.0" dy="0.35em" fill="#8a97a8" font-size="11" text-anchor="end">TEXT</text>
<line x1="430" y1="576" x2="700" y2="576" stroke="#e6ecf4" stroke-width="1"/>
<text x="442" y="588.0" dy="0.35em" fill="#1f2d3d" font-size="12.5" font-weight="400">baseline_p95</text>
<text x="688" y="588.0" dy="0.35em" fill="#8a97a8" font-size="11" text-anchor="end">FLOAT</text>
<line x1="430" y1="600" x2="700" y2="600" stroke="#e6ecf4" stroke-width="1"/>
<text x="442" y="612.0" dy="0.35em" fill="#1f2d3d" font-size="12.5" font-weight="400">current_p95</text>
<text x="688" y="612.0" dy="0.35em" fill="#8a97a8" font-size="11" text-anchor="end">FLOAT</text>
<line x1="430" y1="624" x2="700" y2="624" stroke="#e6ecf4" stroke-width="1"/>
<text x="442" y="636.0" dy="0.35em" fill="#1f2d3d" font-size="12.5" font-weight="400">degradation_percent</text>
<text x="688" y="636.0" dy="0.35em" fill="#8a97a8" font-size="11" text-anchor="end">FLOAT</text>
<line x1="430" y1="648" x2="700" y2="648" stroke="#e6ecf4" stroke-width="1"/>
<text x="442" y="660.0" dy="0.35em" fill="#1f2d3d" font-size="12.5" font-weight="400">sample_count_baseline</text>
<text x="688" y="660.0" dy="0.35em" fill="#8a97a8" font-size="11" text-anchor="end">INT</text>
<line x1="430" y1="672" x2="700" y2="672" stroke="#e6ecf4" stroke-width="1"/>
<text x="442" y="684.0" dy="0.35em" fill="#1f2d3d" font-size="12.5" font-weight="400">sample_count_current</text>
<text x="688" y="684.0" dy="0.35em" fill="#8a97a8" font-size="11" text-anchor="end">INT</text>
<line x1="430" y1="696" x2="700" y2="696" stroke="#e6ecf4" stroke-width="1"/>
<text x="442" y="708.0" dy="0.35em" fill="#1f2d3d" font-size="12.5" font-weight="400">status</text>
<text x="688" y="708.0" dy="0.35em" fill="#8a97a8" font-size="11" text-anchor="end">TEXT</text>
<line x1="430" y1="720" x2="700" y2="720" stroke="#e6ecf4" stroke-width="1"/>
<text x="442" y="732.0" dy="0.35em" fill="#1f2d3d" font-size="12.5" font-weight="400">detected_at</text>
<text x="688" y="732.0" dy="0.35em" fill="#8a97a8" font-size="11" text-anchor="end">TIMESTAMPTZ</text>
<line x1="430" y1="744" x2="700" y2="744" stroke="#e6ecf4" stroke-width="1"/>
<text x="442" y="756.0" dy="0.35em" fill="#1f2d3d" font-size="12.5" font-weight="400">closed_at</text>
<text x="688" y="756.0" dy="0.35em" fill="#8a97a8" font-size="11" text-anchor="end">TIMESTAMPTZ</text>
</svg>